<svg xmlns="http://www.w3.org/2000/svg" viewBox="0 0 512 512">
  <defs>
    <radialGradient id="glow" cx="50%" cy="50%" r="50%">
      <stop offset="0%" stop-color="#60a5fa" stop-opacity="0.3"/>
      <stop offset="100%" stop-color="#60a5fa" stop-opacity="0"/>
    </radialGradient>
    <linearGradient id="globe" x1="0%" y1="0%" x2="100%" y2="100%">
      <stop offset="0%" stop-color="#3b82f6"/>
      <stop offset="50%" stop-color="#1d4ed8"/>
      <stop offset="100%" stop-color="#1e3a5f"/>
    </linearGradient>
    <linearGradient id="land" x1="0%" y1="0%" x2="100%" y2="100%">
      <stop offset="0%" stop-color="#22c55e"/>
      <stop offset="100%" stop-color="#15803d"/>
    </linearGradient>
  </defs>
  <circle cx="256" cy="256" r="256" fill="url(#glow)"/>
  <circle cx="256" cy="256" r="200" fill="url(#globe)"/>
  <ellipse cx="256" cy="256" rx="130" ry="200" fill="none" stroke="#ffffff" stroke-opacity="0.08" stroke-width="2"/>
  <ellipse cx="256" cy="256" rx="50" ry="200" fill="none" stroke="#ffffff" stroke-opacity="0.08" stroke-width="2"/>
  <ellipse cx="256" cy="180" rx="185" ry="30" fill="none" stroke="#ffffff" stroke-opacity="0.08" stroke-width="2"/>
  <ellipse cx="256" cy="256" rx="200" ry="30" fill="none" stroke="#ffffff" stroke-opacity="0.08" stroke-width="2"/>
  <ellipse cx="256" cy="332" rx="185" ry="30" fill="none" stroke="#ffffff" stroke-opacity="0.08" stroke-width="2"/>
  <path d="M180 160 Q170 190 175 220 Q180 240 170 260 Q165 280 175 310 Q180 320 172 340" fill="none" stroke="url(#land)" stroke-width="18" stroke-linecap="round" stroke-opacity="0.7"/>
  <path d="M260 140 Q270 160 265 180 Q260 200 270 220 Q275 250 268 280 Q262 310 270 350" fill="none" stroke="url(#land)" stroke-width="16" stroke-linecap="round" stroke-opacity="0.7"/>
  <path d="M310 150 Q340 170 350 200 Q355 220 345 240 Q335 250 340 260" fill="none" stroke="url(#land)" stroke-width="20" stroke-linecap="round" stroke-opacity="0.6"/>
  <circle cx="280" cy="190" r="8" fill="#ef4444"/>
  <circle cx="190" cy="250" r="5" fill="#f59e0b"/>
  <circle cx="340" cy="230" r="5" fill="#a855f7"/>
  <ellipse cx="210" cy="190" rx="70" ry="80" fill="white" opacity="0.06"/>
</svg>
